# xmcd CD database file
#
# Track frame offsets:
#	150
#	12213
#	30119
#	41482
#	55876
#	76645
#	103722
#	112152
#	125878
#	144614
#	155784
#	173631
#	184539
#	196267
#
# Disc length: 2781 seconds
#
# Revision: 0
# Processed by: cddbd v1.5.2PL0 Copyright (c) Steve Scherf et al.
# Submitted via: CDex 1.70beta2
#
DISCID=b20adb0e
DTITLE=CB Dědows - Srdce trampů
DYEAR=1900
DGENRE=Country
TTITLE0=Srdce trampů
TTITLE1=Až budeš velký
TTITLE2=Já přijdu za Tebou
TTITLE3=Šanghaj
TTITLE4=Píseň domorodce
TTITLE5=Loď ahoj
TTITLE6=Starý šerif
TTITLE7=Maminko, mámo
TTITLE8=Ukolébavka námořníka
TTITLE9=Širou rovinou
TTITLE10=Píseň starého pistolníka
TTITLE11=Pomalu jedu tichou pustinou
TTITLE12=Zelené pláně
TTITLE13=Arizona
EXTD=
EXTT0=
EXTT1=
EXTT2=
EXTT3=
EXTT4=
EXTT5=
EXTT6=
EXTT7=
EXTT8=
EXTT9=
EXTT10=
EXTT11=
EXTT12=
EXTT13=
PLAYORDER=
